<svg width="271" height="143" xmlns="http://www.w3.org/2000/svg">
  <g fill="none" fill-rule="evenodd">
    <path fill="#E4B363" d="M0 0h271v143H0z"/>
    <path d="M75.091 94l-1.827-6.993H56.443L54.616 94H40.63l11.655-44.1h25.2L89.14 94H75.091zM59.593 74.722h10.458l-3.276-12.663h-3.906l-3.276 12.663zM116.608 49.9h15.939l-17.64 27.657V94h-13.86V77.431L83.47 49.9h15.876l8.631 14.238 8.631-14.238zm67.851-.756c14.112 0 24.192 9.198 24.192 22.806 0 13.671-10.08 22.806-24.192 22.806h-25.2c-13.797 0-24.192-9.135-24.192-22.806 0-13.608 10.08-22.806 24.192-22.806h25.2zm0 32.697c5.985 0 10.08-4.284 10.08-9.891 0-5.544-4.095-9.891-10.08-9.891h-25.2c-5.985 0-10.08 4.347-10.08 9.891 0 5.607 4.095 9.891 10.08 9.891h25.2zm31.752-2.835l-2.52-13.671V49.9h13.86v15.435l-2.52 13.671h-8.82zM213.691 94V80.959h13.86V94h-13.86z" fill="#313638"/>
  </g>
</svg>
