<svg width="40" height="40" xmlns="http://www.w3.org/2000/svg">
  <g fill="#313638" fill-rule="evenodd">
    <path d="M22.542 10.102l-2.217 2.217 5.583 5.543H8.46v3.12h17.448l-5.583 5.542 2.217 2.217 9.278-9.32z"/>
    <path d="M19.75.25C8.994.25.25 8.993.25 19.75s8.744 19.5 19.5 19.5 19.5-8.744 19.5-19.5S30.507.25 19.75.25zm0 35.921c-9.032 0-16.421-7.39-16.421-16.421 0-9.032 7.39-16.421 16.421-16.421 9.032 0 16.421 7.39 16.421 16.421 0 9.032-7.39 16.421-16.421 16.421z" fill-rule="nonzero"/>
  </g>
</svg>
